<?xml version="1.0" encoding="iso-8859-1"?>
<!-- Uploaded to: SVG Repo, www.svgrepo.com, Generator: SVG Repo Mixer Tools -->
<!DOCTYPE svg PUBLIC "-//W3C//DTD SVG 1.1//EN" "http://www.w3.org/Graphics/SVG/1.1/DTD/svg11.dtd">
<svg fill="#FFFFFF" height="800px" width="800px" version="1.1" id="Capa_1" xmlns="http://www.w3.org/2000/svg" xmlns:xlink="http://www.w3.org/1999/xlink" 
	 viewBox="0 0 296.479 296.479" xml:space="preserve">
<g>
	<path d="M240.811,210.837l26.642-86.357H29.027l26.642,86.357c1.035,3.354,4.135,5.643,7.645,5.643h2.82
		c6.143-9,16.849-15.875,29.014-15.875c12.165,0,22.871,6.875,29.014,15.875h48.894c6.143-9,16.849-15.875,29.014-15.875
		c12.165,0,22.871,6.875,29.014,15.875h2.085C236.676,216.48,239.776,214.19,240.811,210.837z"/>
	<path d="M272.388,108.479l2.357-7.417c0.749-2.426,0.301-5.177-1.208-7.22c-1.508-2.045-3.897-3.363-6.437-3.363h-10.458
		c0.589-3,0.906-5.915,0.906-9.108c0-26.785-21.715-48.388-48.5-48.388c-1.882,0-3.735,0.176-5.562,0.385
		C202.512,14.761,187.116,0,168.265,0c-7.044,0-13.6,2.089-19.107,5.646c-5.507-3.557-12.063-5.624-19.106-5.624
		c-18.851,0-34.247,14.792-35.223,33.399c-1.826-0.209-3.68-0.326-5.562-0.326c-26.785,0-48.5,21.49-48.5,48.275
		c0,3.193,0.317,6.109,0.906,9.109H29.378c-2.54,0-4.929,1.431-6.437,3.476c-1.509,2.043-1.957,4.569-1.208,6.995l2.358,7.529
		H272.388z"/>
	<path d="M203.224,253.983c9.671-0.6,17.337-8.613,17.337-18.436c0-10.213-8.28-18.492-18.493-18.492
		c-10.213,0-18.493,8.279-18.493,18.492c0,6.049,2.917,11.402,7.406,14.777c-6.862-1.719-14.112-3.014-21.623-3.854
		c-6.688-0.748-13.57-1.148-20.567-1.148c-7.13,0-14.14,0.41-20.944,1.182c-7.559,0.857-14.851,2.174-21.744,3.918
		c4.564-3.367,7.538-8.768,7.538-14.875c0-10.213-8.279-18.492-18.493-18.492c-10.213,0-18.493,8.279-18.493,18.492
		c0,9.902,7.789,17.963,17.569,18.447c-4.174,1.471-8.151,3.107-11.87,4.918c-2.78,1.355-5.378,2.564-7.8,4.064
		c-14.748,9.135-22.763,21.503-22.763,33.503h194c0-12-8.098-24.462-22.992-33.608c-2.357-1.447-4.878-2.72-7.57-4.032
		C211.47,257.009,207.447,255.47,203.224,253.983z"/>
</g>
</svg>