<?xml version="1.0" encoding="iso-8859-1"?>
<!-- Uploaded to: SVG Repo, www.svgrepo.com, Generator: SVG Repo Mixer Tools -->
<svg fill="#FFFFFF" height="800px" width="800px" version="1.1" id="Layer_1" xmlns="http://www.w3.org/2000/svg" xmlns:xlink="http://www.w3.org/1999/xlink" 
	 viewBox="0 0 511.787 511.787" xml:space="preserve">
<g>
	<g>
		<path d="M450.277,273.92l-105.92-75.52c-8.32-5.76-18.56-7.787-28.373-5.653c-3.413,0.747-6.613,2.027-9.6,3.733
			c-3.84-11.413-11.413-21.333-21.44-27.84c6.293-7.04,9.28-16.427,8.213-25.813L276.303,17.28C275.13,7.253,266.597,0,255.93,0
			c-10.667,0-19.2,7.253-20.373,17.173l-16.747,125.76c-1.067,9.387,1.92,18.667,8.213,25.707
			c-10.133,6.613-17.707,16.427-21.44,27.84c-2.987-1.707-6.187-2.987-9.6-3.733c-9.92-2.133-20.267,0-28.587,5.76L61.69,273.813
			c-8.213,5.547-10.88,16.427-5.973,25.067c3.413,6.4,10.133,10.347,17.28,10.347c2.773,0,5.44-0.533,8-1.6l121.6-49.707
			c5.12-2.24,9.707-5.547,13.227-9.92c2.453,2.773,5.12,5.333,8.107,7.573l-21.333,244.693c-0.533,5.867,3.84,11.093,9.707,11.52
			c0.32,0,0.64,0,0.96,0h85.333c5.867,0,10.667-4.693,10.667-10.667c0-0.32,0-0.64,0-0.96L287.93,255.467
			c2.987-2.24,5.653-4.8,8.107-7.573c3.627,4.373,8.213,7.787,13.333,9.92l121.28,49.6c2.56,1.067,5.333,1.707,8.107,1.707
			c7.253,0,13.867-3.947,17.28-10.347C460.944,290.347,458.384,279.467,450.277,273.92z M201.957,230.187
			c-1.173,3.733-4.053,6.72-7.573,8.107l-107.947,44.16L179.663,216c2.56-1.707,5.547-2.667,8.64-2.667
			c1.067,0,2.133,0.107,3.2,0.32c3.84,0.747,7.253,3.093,9.28,6.4C202.704,223.04,203.13,226.773,201.957,230.187z M239.93,145.707
			l16-120.107l15.893,120c0.32,3.307-0.747,6.613-2.987,9.067c-6.187,6.933-19.627,6.933-25.813,0
			C240.783,152.32,239.61,149.013,239.93,145.707z M224.89,490.667l19.52-224h23.04l19.52,224H224.89z M255.93,245.333
			c-17.707,0-32-14.293-32-32c0-17.707,14.293-32,32-32s32,14.293,32,32C287.93,231.04,273.637,245.333,255.93,245.333z
			 M317.583,238.4c-3.627-1.493-6.507-4.48-7.787-8.213c-1.067-3.413-0.64-7.04,1.173-10.027c2.027-3.307,5.44-5.653,9.28-6.4
			c4.053-0.853,8.32-0.107,11.733,2.24l93.333,66.453L317.583,238.4z"/>
	</g>
</g>
</svg>