<?xml version="1.0" encoding="iso-8859-1"?>
<!-- Uploaded to: SVG Repo, www.svgrepo.com, Generator: SVG Repo Mixer Tools -->
<svg fill="#FFFFFF" height="800px" width="800px" version="1.1" id="Layer_1" xmlns="http://www.w3.org/2000/svg" xmlns:xlink="http://www.w3.org/1999/xlink" 
	 viewBox="0 0 512 512" xml:space="preserve">
<g>
	<g>
		<path d="M503.983,495.967h-12.398c-39.624-72.296-47.184-175.651-48.233-229.505c0.151-0.614,0.238-1.251,0.238-1.91
			c0-0.757-0.112-1.485-0.308-2.178c-0.273-19.219,0.276-31.182,0.297-31.623c0.11-2.193-0.684-4.337-2.198-5.927
			c-1.514-1.592-3.613-2.493-5.809-2.493H291.609c-1.439-16.331-1.928-26.144-1.948-26.561c-0.2-4.278-3.725-7.644-8.008-7.644
			H93.528c-4.283,0-7.809,3.366-8.008,7.645c-0.083,1.801-8.93,179.325-65.469,300.197H8.017c-4.427,0-8.017,3.589-8.017,8.017
			C0,508.411,3.589,512,8.017,512h495.967c4.427,0,8.017-3.589,8.017-8.017C512,499.556,508.411,495.967,503.983,495.967z
			 M427.285,238.363c-0.106,4.489-0.19,10.653-0.154,18.171H295.138c-0.761-6.467-1.424-12.544-2-18.171H427.285z M101.082,204.159
			h173.019c0.29,4.389,0.738,10.551,1.392,18.171H99.69C100.345,214.71,100.791,208.548,101.082,204.159z M37.67,495.967
			c16.653-37.401,37.559-98.649,52.021-191.086c3.981-25.444,6.693-48.368,8.507-66.517h178.785
			c1.815,18.149,4.527,41.074,8.507,66.517c14.462,92.437,35.368,153.686,52.021,191.086H37.67z M355.13,495.967
			c-32.997-70.544-49.753-160.44-57.999-223.399H427.38c0.406,15.763,1.37,35.018,3.422,56.276
			c6.572,68.092,20.91,124.218,42.657,167.123H355.13z"/>
	</g>
</g>
<g>
	<g>
		<path d="M187.591,359.105c-4.427,0-8.059,3.632-8.059,8.059c0,4.427,3.632,8.06,8.059,8.06s8.059-3.632,8.059-8.06
			C195.65,362.738,192.018,359.105,187.591,359.105z"/>
	</g>
</g>
<g>
	<g>
		<path d="M181.641,341.056l-21.566-36.971c-1.072-1.837-2.83-3.174-4.888-3.714c-2.057-0.54-4.246-0.242-6.083,0.833
			c-23.401,13.683-37.939,38.958-37.939,65.961c0,4.427,3.589,8.017,8.017,8.017h42.756c4.427,0,8.017-3.589,8.017-8.017
			c0-6.259,3.293-11.922,8.81-15.149C182.583,349.783,183.871,344.877,181.641,341.056z M154.912,359.149h-27.17v-0.001
			c2.12-15.591,10.344-29.87,22.798-39.589l13.701,23.489C159.684,347.449,156.442,353.046,154.912,359.149z"/>
	</g>
</g>
<g>
	<g>
		<path d="M226.077,301.205c-1.837-1.074-4.025-1.374-6.083-0.833c-2.058,0.541-3.816,1.877-4.888,3.714l-21.566,36.971
			c-2.229,3.821-0.941,8.726,2.877,10.959c5.517,3.227,8.81,8.889,8.81,15.149c0,4.427,3.589,8.017,8.017,8.017H256
			c4.427,0,8.017-3.589,8.017-8.017C264.017,340.161,249.479,314.886,226.077,301.205z M220.269,359.147v0.001
			c-1.53-6.103-4.773-11.699-9.329-16.101l13.701-23.489c12.455,9.718,20.679,23.998,22.798,39.589H220.269z"/>
	</g>
</g>
<g>
	<g>
		<path d="M229.626,421.642l-22.01-36.683c-1.095-1.825-2.87-3.139-4.934-3.653c-2.063-0.514-4.249-0.188-6.072,0.909
			c-5.709,3.434-12.33,3.434-18.039,0c-1.824-1.097-4.008-1.423-6.072-0.909c-2.065,0.514-3.839,1.829-4.934,3.653l-22.01,36.682
			c-2.277,3.795-1.049,8.715,2.743,10.995c11.917,7.167,25.505,10.955,39.293,10.955s27.375-3.788,39.293-10.954
			C230.675,430.357,231.903,425.437,229.626,421.642z M187.591,427.557c-8.216,0-16.347-1.709-23.894-4.986l13.971-23.286
			c6.452,2.045,13.394,2.045,19.846,0l13.971,23.286C203.937,425.848,195.806,427.557,187.591,427.557z"/>
	</g>
</g>
<g>
	<g>
		<path d="M461.228,42.756c-7.937,0-15.592,1.827-22.55,5.322c-4.742-8.848-12.652-15.95-22.362-19.625
			c-5.622-2.127-11.415-2.998-17.294-2.604C388.023,9.778,369.732,0,350.063,0c-15.557,0-30.516,6.191-41.592,17.102h-26.817
			c-56.287,0-102.079,45.792-102.079,102.079v42.756c0,4.427,3.589,8.017,8.017,8.017s8.017-3.589,8.017-8.017
			c0-38.809,25.875-72.395,62.585-82.732c4.947,17.913,21.27,30.891,40.563,30.891c5.471,0,10.802-1.085,15.913-3.23
			c3.25,2.427,6.72,4.499,10.351,6.201c1.266,22.151,19.683,39.785,42.145,39.785c6.297,0,12.432-1.394,18.055-4.07
			c9.225,8.085,21.029,12.622,33.252,12.622c14.577,0,28.476-6.402,38.079-17.339c1.585,0.158,3.137,0.236,4.676,0.236
			c27.995,0,50.772-22.777,50.772-50.772C512,65.533,489.223,42.756,461.228,42.756z M321.119,91.437
			c-2.58-2.328-6.368-2.728-9.378-0.989c-4.152,2.398-8.52,3.614-12.985,3.614c-13.938,0-25.374-10.965-26.034-24.963
			c-0.109-2.309-1.209-4.458-3.019-5.897c-1.81-1.439-4.154-2.026-6.426-1.612c-28.036,5.107-51.631,21.367-66.549,43.702
			c6.658-40.867,42.206-72.157,84.926-72.157h30.243c2.278,0,4.448-0.968,5.968-2.664c8.23-9.176,19.966-14.439,32.198-14.439
			c15.713,0,30.222,8.558,37.867,22.332c1.698,3.06,5.185,4.665,8.614,3.965c4.87-0.994,9.482-0.63,14.097,1.117
			c8.519,3.224,14.817,10.623,16.437,19.307c1.489,7.981-0.482,15.737-5.551,21.839c-4.998,6.018-12.346,9.469-20.157,9.469
			c-4.464,0-8.833-1.216-12.986-3.614c-3.01-1.738-6.797-1.338-9.377,0.989c-7.991,7.208-18.271,11.176-28.944,11.176
			C339.39,102.614,329.11,98.645,321.119,91.437z M461.228,128.267c-2.062,0-4.209-0.219-6.566-0.67
			c-3.068-0.587-6.199,0.661-8.021,3.199c-6.549,9.125-17.079,14.573-28.169,14.573c-9.961,0-19.169-4.219-25.929-11.88
			c-2.684-3.043-7.218-3.598-10.56-1.298c-4.392,3.027-9.516,4.626-14.818,4.626c-11.848,0-21.877-7.911-25.099-18.726
			c2.637,0.36,5.306,0.555,7.996,0.555c12.8,0,25.175-4.149,35.394-11.781c5.11,2.146,10.442,3.23,15.913,3.23
			c12.594,0,24.436-5.56,32.49-15.256c7.2-8.668,10.565-19.794,9.521-31.037c5.379-3.277,11.478-5.013,17.847-5.013
			c19.155,0,34.739,15.583,34.739,34.739S480.382,128.267,461.228,128.267z"/>
	</g>
</g>
</svg>